<svg width="15" height="15" viewBox="0 0 15 15" fill="none" xmlns="http://www.w3.org/2000/svg">
<path d="M10.9165 1.83464V1.95964H11.0415H12.4582C12.9886 1.95964 13.4973 2.17035 13.8724 2.54542C14.2475 2.92049 14.4582 3.4292 14.4582 3.95964V12.4596C14.4582 12.9901 14.2475 13.4988 13.8724 13.8738C13.4973 14.2489 12.9886 14.4596 12.4582 14.4596H2.5415C2.01107 14.4596 1.50236 14.2489 1.12729 13.8738C0.752218 13.4988 0.541504 12.9901 0.541504 12.4596V3.95964C0.541504 3.4292 0.752218 2.9205 1.12729 2.54542C1.50236 2.17035 2.01107 1.95964 2.5415 1.95964H3.95817H4.08317V1.83464V1.1263C4.08317 0.971593 4.14463 0.823219 4.25403 0.713823C4.36342 0.604427 4.51179 0.542969 4.6665 0.542969C4.82121 0.542969 4.96959 0.604427 5.07898 0.713823C5.18838 0.823219 5.24984 0.971593 5.24984 1.1263V1.83464V1.95964H5.37484H9.62484H9.74984V1.83464V1.1263C9.74984 0.971593 9.8113 0.823219 9.92069 0.713823C10.0301 0.604427 10.1785 0.542969 10.3332 0.542969C10.4879 0.542969 10.6363 0.604427 10.7457 0.713823C10.855 0.823219 10.9165 0.971593 10.9165 1.1263V1.83464ZM1.83317 7.3763H1.70817V7.5013V12.4596C1.70817 12.6806 1.79597 12.8926 1.95225 13.0489C2.10853 13.2052 2.32049 13.293 2.5415 13.293H12.4582C12.6792 13.293 12.8911 13.2052 13.0474 13.0489C13.2037 12.8926 13.2915 12.6806 13.2915 12.4596V7.5013V7.3763H13.1665H1.83317ZM13.1665 6.20964H13.2915V6.08464V3.95964C13.2915 3.73862 13.2037 3.52666 13.0474 3.37038C12.8911 3.2141 12.6792 3.1263 12.4582 3.1263H11.0415H10.9165V3.2513V3.95964C10.9165 4.11435 10.855 4.26272 10.7457 4.37211C10.6363 4.48151 10.4879 4.54297 10.3332 4.54297C10.1785 4.54297 10.0301 4.48151 9.92069 4.37211C9.8113 4.26272 9.74984 4.11435 9.74984 3.95964V3.2513V3.1263H9.62484H5.37484H5.24984V3.2513V3.95964C5.24984 4.11435 5.18838 4.26272 5.07898 4.37211C4.96959 4.48151 4.82121 4.54297 4.6665 4.54297C4.51179 4.54297 4.36342 4.48151 4.25403 4.37211C4.14463 4.26272 4.08317 4.11435 4.08317 3.95964V3.2513V3.1263H3.95817H2.5415C2.32049 3.1263 2.10853 3.2141 1.95225 3.37038C1.79597 3.52666 1.70817 3.73862 1.70817 3.95964V6.08464V6.20964H1.83317H13.1665Z" fill="#817F7F" stroke="white" stroke-width="0.25"/>
</svg>
