<svg width="22" height="14" viewBox="0 0 22 14" fill="none" xmlns="http://www.w3.org/2000/svg">
<path d="M21.8322 6.7165C21.8016 6.64738 21.0605 5.00325 19.4128 3.35563C17.2175 1.16025 14.4446 0 11.3926 0C8.34058 0 5.5677 1.16025 3.37232 3.35563C1.7247 5.00325 0.98007 6.65 0.952945 6.7165C0.913144 6.80603 0.892578 6.90291 0.892578 7.00088C0.892578 7.09885 0.913144 7.19573 0.952945 7.28525C0.98357 7.35438 1.7247 8.99763 3.37232 10.6453C5.5677 12.8398 8.34058 14 11.3926 14C14.4446 14 17.2175 12.8398 19.4128 10.6453C21.0605 8.99763 21.8016 7.35438 21.8322 7.28525C21.872 7.19573 21.8926 7.09885 21.8926 7.00088C21.8926 6.90291 21.872 6.80603 21.8322 6.7165ZM11.3926 12.6C8.69933 12.6 6.34645 11.6209 4.3987 9.69063C3.59954 8.89584 2.91962 7.98957 2.38007 7C2.91941 6.0103 3.59935 5.10401 4.3987 4.30938C6.34645 2.37913 8.69933 1.4 11.3926 1.4C14.0858 1.4 16.4387 2.37913 18.3865 4.30938C19.1872 5.10387 19.8686 6.01016 20.4095 7C19.7786 8.17775 17.0302 12.6 11.3926 12.6ZM11.3926 2.8C10.5619 2.8 9.74987 3.04633 9.05918 3.50783C8.36849 3.96933 7.83017 4.62528 7.51228 5.39273C7.19439 6.16018 7.11122 7.00466 7.27328 7.81938C7.43533 8.6341 7.83535 9.38247 8.42273 9.96985C9.01011 10.5572 9.75848 10.9572 10.5732 11.1193C11.3879 11.2814 12.2324 11.1982 12.9998 10.8803C13.7673 10.5624 14.4233 10.0241 14.8848 9.3334C15.3463 8.64271 15.5926 7.83069 15.5926 7C15.5914 5.88645 15.1486 4.81883 14.3611 4.03143C13.5737 3.24403 12.5061 2.80116 11.3926 2.8ZM11.3926 9.8C10.8388 9.8 10.2974 9.63579 9.83698 9.32812C9.37652 9.02045 9.01764 8.58315 8.80571 8.07152C8.59379 7.55988 8.53834 6.9969 8.64638 6.45375C8.75442 5.9106 9.02109 5.41169 9.41268 5.0201C9.80426 4.62852 10.3032 4.36184 10.8463 4.2538C11.3895 4.14576 11.9525 4.20121 12.4641 4.41314C12.9757 4.62506 13.413 4.98395 13.7207 5.44441C14.0284 5.90486 14.1926 6.44622 14.1926 7C14.1926 7.74261 13.8976 8.4548 13.3725 8.9799C12.8474 9.505 12.1352 9.8 11.3926 9.8Z" fill="black"/>
</svg>
