<svg width="23" height="20" viewBox="0 0 23 20" fill="none" xmlns="http://www.w3.org/2000/svg">
<path d="M4.5 4.60646H22L19.7796 12.9613C19.6123 13.5902 19.2591 14.1434 18.7733 14.5373C18.2876 14.9311 17.6958 15.1441 17.0874 15.1441H7.7074C7.01785 15.1445 6.3524 14.8713 5.83857 14.3769C5.32473 13.8824 4.99865 13.2015 4.9228 12.4645L3.8 1.5957H1" stroke="#14967F" stroke-width="1.5" stroke-linecap="round" stroke-linejoin="round"/>
<path d="M7.24159 19.7586C8.00766 19.7586 8.62869 19.1375 8.62869 18.3715C8.62869 17.6054 8.00766 16.9844 7.24159 16.9844C6.47552 16.9844 5.85449 17.6054 5.85449 18.3715C5.85449 19.1375 6.47552 19.7586 7.24159 19.7586Z" fill="#14967F"/>
<path d="M18.3383 19.7586C19.1043 19.7586 19.7254 19.1375 19.7254 18.3715C19.7254 17.6054 19.1043 16.9844 18.3383 16.9844C17.5722 16.9844 16.9512 17.6054 16.9512 18.3715C16.9512 19.1375 17.5722 19.7586 18.3383 19.7586Z" fill="#14967F"/>
<path d="M12.516 13.1121C12.1986 13.1121 11.9412 12.8547 11.9412 12.5373V6.91267C11.9412 6.59523 12.1986 6.33789 12.516 6.33789C12.8334 6.33789 13.0908 6.59523 13.0908 6.91267V12.5373C13.0908 12.8547 12.8334 13.1121 12.516 13.1121ZM9.70369 10.2998C9.38624 10.2998 9.12891 10.0424 9.12891 9.72499C9.12891 9.40754 9.38624 9.15021 9.70369 9.15021H15.3283C15.6458 9.15021 15.9031 9.40754 15.9031 9.72499C15.9031 10.0424 15.6458 10.2998 15.3283 10.2998H9.70369Z" fill="#14967F"/>
</svg>
