<svg width="18" height="18" viewBox="0 0 18 18" fill="none" xmlns="http://www.w3.org/2000/svg">
<path d="M10.5548 1.29937L12.1388 4.49347C12.3548 4.93807 12.9308 5.36466 13.4168 5.44566L16.287 5.92716C18.1231 6.23586 18.5551 7.57866 17.232 8.90346L15 11.1535C14.622 11.5342 14.415 12.2695 14.532 12.796L15.171 15.5814C15.675 17.7864 14.514 18.6387 12.5789 17.4867L9.88785 15.8802C9.40183 15.5904 8.60081 15.5904 8.1058 15.8802L5.41653 17.4867C3.49048 18.6387 2.32045 17.7765 2.82447 15.5814L3.46348 12.796C3.58049 12.2695 3.37348 11.5342 2.99547 11.1535L0.763415 8.90346C-0.549718 7.57776 -0.126708 6.23586 1.70844 5.92716L4.57951 5.44566C5.05652 5.36466 5.63254 4.93807 5.84854 4.49347L7.43258 1.29937C8.29661 -0.433124 9.70064 -0.433124 10.5557 1.29937" fill="#CCECEE"/>
</svg>
