<svg width="18" height="18" viewBox="0 0 18 18" fill="none" xmlns="http://www.w3.org/2000/svg">
<path fill-rule="evenodd" clip-rule="evenodd" d="M0 9C0 4.0293 4.0293 0 9 0C13.9707 0 18 4.0293 18 9C18 13.9707 13.9707 18 9 18C4.0293 18 0 13.9707 0 9ZM5.4 4.5C5.4 4.38065 5.44741 4.26619 5.5318 4.1818C5.61619 4.09741 5.73065 4.05 5.85 4.05H8.55C9.13109 4.05019 9.68957 4.2752 10.1085 4.67789C10.5274 5.08059 10.7743 5.62975 10.7975 6.21038C10.8206 6.79101 10.6182 7.35807 10.2327 7.79284C9.84713 8.22761 9.30833 8.49635 8.7291 8.5428L10.8 10.6137L12.7318 8.68185L13.3681 9.31815L11.4363 11.25L13.3681 13.1818L12.7318 13.8181L10.8 11.8863L8.86815 13.8181L8.23185 13.1818L10.1637 11.25L7.4637 8.55H6.3V11.7H5.4V4.5ZM8.55 7.65H6.3V4.95H8.55C8.90804 4.95 9.25142 5.09223 9.50459 5.34541C9.75777 5.59858 9.9 5.94196 9.9 6.3C9.9 6.65804 9.75777 7.00142 9.50459 7.25459C9.25142 7.50777 8.90804 7.65 8.55 7.65Z" fill="#14967F"/>
</svg>
